<svg width="39" height="39" viewBox="0 0 39 39" fill="none" xmlns="http://www.w3.org/2000/svg">
<path d="M19.5 39C24.7982 39 25.4592 38.9805 27.5379 38.883C29.6147 38.7855 31.0284 38.4598 32.2725 37.9762C33.5595 37.4809 34.6437 36.8102 35.7279 35.7279C36.7195 34.7531 37.4867 33.574 37.9763 32.2725C38.4579 31.0304 38.7855 29.6147 38.883 27.5379C38.9747 25.4592 39 24.7981 39 19.5C39 14.2018 38.9805 13.5408 38.883 11.4621C38.7855 9.38535 38.4579 7.9716 37.9763 6.7275C37.4881 5.42534 36.7207 4.2459 35.7279 3.2721C34.7528 2.28088 33.5738 1.51368 32.2725 1.02375C31.0303 0.542098 29.6147 0.214498 27.5379 0.116998C25.4592 0.025348 24.7982 -9.53674e-07 19.5 -9.53674e-07C14.2019 -9.53674e-07 13.5408 0.019498 11.4621 0.116998C9.38535 0.214498 7.9716 0.542098 6.7275 1.02375C5.42554 1.51228 4.24618 2.27966 3.2721 3.2721C2.28034 4.24674 1.51307 5.42594 1.02375 6.7275C0.54015 7.96965 0.2145 9.38535 0.117 11.4621C0.0253499 13.5408 0 14.2018 0 19.5C0 24.7981 0.0194999 25.4592 0.117 27.5379C0.2145 29.6166 0.54015 31.0284 1.02375 32.2725C1.51171 33.5748 2.27917 34.7542 3.2721 35.7279C4.24646 36.72 5.42574 37.4873 6.7275 37.9762C7.9716 38.4598 9.3834 38.7855 11.4621 38.883C13.5408 38.9747 14.2019 39 19.5 39ZM19.5 29.25C16.9141 29.25 14.4342 28.2228 12.6057 26.3943C10.7772 24.5658 9.75 22.0859 9.75 19.5C9.75 16.9141 10.7772 14.4342 12.6057 12.6057C14.4342 10.7772 16.9141 9.75 19.5 9.75C22.0859 9.75 24.5658 10.7772 26.3943 12.6057C28.2228 14.4342 29.25 16.9141 29.25 19.5C29.25 22.0859 28.2228 24.5658 26.3943 26.3943C24.5658 28.2228 22.0859 29.25 19.5 29.25V29.25ZM32.175 29.7375C32.175 30.384 31.9182 31.004 31.4611 31.4611C31.004 31.9182 30.384 32.175 29.7375 32.175C29.091 32.175 28.471 31.9182 28.0139 31.4611C27.5568 31.004 27.3 30.384 27.3 29.7375C27.3 29.091 27.5568 28.471 28.0139 28.0139C28.471 27.5568 29.091 27.3 29.7375 27.3C30.384 27.3 31.004 27.5568 31.4611 28.0139C31.9182 28.471 32.175 29.091 32.175 29.7375ZM19.5 25.35C21.0515 25.35 22.5395 24.7337 23.6366 23.6366C24.7337 22.5395 25.35 21.0515 25.35 19.5C25.35 17.9485 24.7337 16.4605 23.6366 15.3634C22.5395 14.2663 21.0515 13.65 19.5 13.65C17.9485 13.65 16.4605 14.2663 15.3634 15.3634C14.2663 16.4605 13.65 17.9485 13.65 19.5C13.65 21.0515 14.2663 22.5395 15.3634 23.6366C16.4605 24.7337 17.9485 25.35 19.5 25.35V25.35Z" fill="black"/>
</svg>
