<svg width="39" height="39" viewBox="0 0 39 39" fill="none" xmlns="http://www.w3.org/2000/svg">
<path d="M33.2298 33.2304H27.4513V24.1807C27.4513 22.0227 27.4127 19.2448 24.4458 19.2448C21.4361 19.2448 20.9756 21.596 20.9756 24.0236V33.2298H15.1972V14.6201H20.7445V17.1633H20.8222C21.3773 16.214 22.1796 15.4331 23.1434 14.9037C24.1073 14.3744 25.1967 14.1163 26.2956 14.1571C32.1525 14.1571 33.2323 18.0096 33.2323 23.0214L33.2298 33.2304V33.2304ZM8.67689 12.0764C6.82485 12.0767 5.3232 10.5755 5.32289 8.72345C5.32259 6.87141 6.82363 5.36975 8.67567 5.36945C10.5277 5.36899 12.0294 6.87019 12.0297 8.72223C12.0298 9.61162 11.6767 10.4646 11.0479 11.0937C10.4192 11.7227 9.56628 12.0762 8.67689 12.0764V12.0764ZM11.5662 33.2305H5.7816V14.6201H11.5661V33.2304L11.5662 33.2305ZM36.1107 0.00283845H2.87793C1.30726 -0.0148334 0.0191953 1.24337 0 2.81404V36.1854C0.0185859 37.7568 1.3065 39.0162 2.87777 38.9998H36.1107C37.6853 39.0193 38.9782 37.7599 39 36.1854V2.81145C38.9776 1.23774 37.6845 -0.0203178 36.1107 0.000248609" fill="#0A66C2"/>
</svg>
